# xmcd CD database file
#
# Track frame offsets:
#	150
#	13664
#	31624
#
# Disc length: 542 seconds
#
# Revision: 0
# Processed by: cddbd v1.5.1PL0 Copyright (c) Steve Scherf et al.
# Submitted via: CDex 1.50
#
DISCID=14021c03
DTITLE=Jeff Aschmann - All Alone At Christmas
DYEAR=2005
DGENRE=Country
TTITLE0=All Alone At Christmas
TTITLE1=Dreamtime Christmas
TTITLE2=Australian Country Christmas Rap
EXTD=YEAR: 2005
EXTT0=
EXTT1=
EXTT2=
PLAYORDER=
